<svg width="52" height="13" viewBox="0 0 52 13" fill="none" xmlns="http://www.w3.org/2000/svg">
<path d="M10.416 6.064V11.344C9.968 11.5787 9.38133 11.7707 8.656 11.92C7.93067 12.0587 7.19467 12.128 6.448 12.128C5.31733 12.128 4.34133 11.8987 3.52 11.44C2.69867 10.9707 2.06933 10.2987 1.632 9.424C1.20533 8.54933 0.992 7.504 0.992 6.288C0.992 5.08267 1.20533 4.048 1.632 3.184C2.06933 2.30933 2.688 1.64267 3.488 1.184C4.29867 0.714666 5.25333 0.48 6.352 0.48C7.152 0.48 7.88267 0.602666 8.544 0.848C9.216 1.08267 9.792 1.44 10.272 1.92L9.76 2.928C9.20533 2.45867 8.66133 2.12267 8.128 1.92C7.60533 1.70667 7.01333 1.6 6.352 1.6C5.06133 1.6 4.06933 2.00533 3.376 2.816C2.69333 3.616 2.352 4.77333 2.352 6.288C2.352 7.83467 2.704 9.01333 3.408 9.824C4.112 10.624 5.136 11.024 6.48 11.024C7.42933 11.024 8.34133 10.8747 9.216 10.576V7.104H6.384V6.064H10.416ZM20.0391 3.952V12H18.7591V10.544C18.5245 11.0453 18.1671 11.4347 17.6871 11.712C17.2178 11.9787 16.6685 12.112 16.0391 12.112C15.3245 12.112 14.6951 11.9413 14.1511 11.6C13.6178 11.2587 13.2018 10.7787 12.9031 10.16C12.6151 9.53067 12.4711 8.8 12.4711 7.968C12.4711 7.136 12.6205 6.40533 12.9191 5.776C13.2178 5.136 13.6338 4.64 14.1671 4.288C14.7111 3.936 15.3351 3.76 16.0391 3.76C16.6685 3.76 17.2178 3.89867 17.6871 4.176C18.1565 4.45333 18.5138 4.84267 18.7591 5.344V3.952H20.0391ZM16.2951 11.04C17.0845 11.04 17.6925 10.7733 18.1191 10.24C18.5458 9.696 18.7591 8.928 18.7591 7.936C18.7591 6.944 18.5458 6.18133 18.1191 5.648C17.6925 5.11467 17.0845 4.848 16.2951 4.848C15.5058 4.848 14.8871 5.12533 14.4391 5.68C14.0018 6.224 13.7831 6.98667 13.7831 7.968C13.7831 8.94933 14.0018 9.70667 14.4391 10.24C14.8765 10.7733 15.4951 11.04 16.2951 11.04ZM31.4729 3.76C33.2542 3.76 34.1449 4.82133 34.1449 6.944V12H32.8489V7.008C32.8489 6.25067 32.7155 5.70133 32.4489 5.36C32.1929 5.01867 31.7715 4.848 31.1849 4.848C30.5022 4.848 29.9689 5.07733 29.5849 5.536C29.2009 5.99467 29.0089 6.61867 29.0089 7.408V12H27.7129V7.008C27.7129 6.26133 27.5795 5.71733 27.3129 5.376C27.0462 5.024 26.6195 4.848 26.0329 4.848C25.3502 4.848 24.8115 5.07733 24.4169 5.536C24.0329 5.99467 23.8409 6.61867 23.8409 7.408V12H22.5449V6.208C22.5449 5.376 22.5022 4.624 22.4169 3.952H23.6489L23.7769 5.36C24.0009 4.848 24.3315 4.45333 24.7689 4.176C25.2169 3.89867 25.7342 3.76 26.3209 3.76C26.9609 3.76 27.4835 3.888 27.8889 4.144C28.2942 4.4 28.5929 4.79467 28.7849 5.328C29.0302 4.848 29.3875 4.46933 29.8569 4.192C30.3369 3.904 30.8755 3.76 31.4729 3.76ZM43.3434 7.936H37.4394C37.45 8.96 37.6847 9.73333 38.1434 10.256C38.6127 10.7787 39.29 11.04 40.1754 11.04C41.114 11.04 41.978 10.7253 42.7674 10.096L43.1994 11.04C42.8474 11.3707 42.394 11.632 41.8394 11.824C41.2954 12.016 40.7354 12.112 40.1594 12.112C38.9007 12.112 37.914 11.744 37.1994 11.008C36.4847 10.2613 36.1274 9.24267 36.1274 7.952C36.1274 7.13067 36.2874 6.40533 36.6074 5.776C36.9274 5.136 37.3754 4.64 37.9514 4.288C38.5274 3.936 39.1834 3.76 39.9194 3.76C40.986 3.76 41.8234 4.112 42.4314 4.816C43.0394 5.50933 43.3434 6.46933 43.3434 7.696V7.936ZM39.9354 4.768C39.2634 4.768 38.714 4.97067 38.2874 5.376C37.8714 5.78133 37.6047 6.352 37.4874 7.088H42.1754C42.1114 6.33067 41.8874 5.75467 41.5034 5.36C41.13 4.96533 40.6074 4.768 39.9354 4.768ZM48.0305 12.112C46.6758 12.112 45.6038 11.7653 44.8145 11.072L45.2465 10.112C45.6838 10.4533 46.1265 10.6987 46.5745 10.848C47.0225 10.9973 47.5238 11.072 48.0785 11.072C48.6865 11.072 49.1452 10.9707 49.4545 10.768C49.7745 10.5547 49.9345 10.2507 49.9345 9.856C49.9345 9.536 49.8278 9.28 49.6145 9.088C49.4012 8.896 49.0492 8.74667 48.5585 8.64L47.1985 8.32C46.5265 8.17067 46.0038 7.904 45.6305 7.52C45.2678 7.136 45.0865 6.67733 45.0865 6.144C45.0865 5.44 45.3692 4.86933 45.9345 4.432C46.4998 3.984 47.2465 3.76 48.1745 3.76C48.7398 3.76 49.2732 3.85067 49.7745 4.032C50.2758 4.21333 50.6972 4.47467 51.0385 4.816L50.6065 5.76C49.8492 5.13067 49.0385 4.816 48.1745 4.816C47.5985 4.816 47.1505 4.928 46.8305 5.152C46.5212 5.36533 46.3665 5.66933 46.3665 6.064C46.3665 6.39467 46.4625 6.656 46.6545 6.848C46.8572 7.04 47.1772 7.18933 47.6145 7.296L48.9745 7.632C49.7212 7.80267 50.2758 8.06933 50.6385 8.432C51.0012 8.784 51.1825 9.248 51.1825 9.824C51.1825 10.5173 50.8998 11.072 50.3345 11.488C49.7692 11.904 49.0012 12.112 48.0305 12.112Z" fill="#898989"/>
</svg>
