<svg width="87" height="13" viewBox="0 0 87 13" fill="none" xmlns="http://www.w3.org/2000/svg">
<path d="M17.248 0.608L13.264 12H12.144L8.896 2.672L5.632 12H4.528L0.528 0.608H1.872L5.104 10.128L8.416 0.608L9.424 0.624L12.688 10.16L15.952 0.608H17.248ZM25.2266 3.952V12H23.9466V10.544C23.712 11.0453 23.3546 11.4347 22.8746 11.712C22.4053 11.9787 21.856 12.112 21.2266 12.112C20.512 12.112 19.8826 11.9413 19.3386 11.6C18.8053 11.2587 18.3893 10.7787 18.0906 10.16C17.8026 9.53067 17.6586 8.8 17.6586 7.968C17.6586 7.136 17.808 6.40533 18.1066 5.776C18.4053 5.136 18.8213 4.64 19.3546 4.288C19.8986 3.936 20.5226 3.76 21.2266 3.76C21.856 3.76 22.4053 3.89867 22.8746 4.176C23.344 4.45333 23.7013 4.84267 23.9466 5.344V3.952H25.2266ZM21.4826 11.04C22.272 11.04 22.88 10.7733 23.3066 10.24C23.7333 9.696 23.9466 8.928 23.9466 7.936C23.9466 6.944 23.7333 6.18133 23.3066 5.648C22.88 5.11467 22.272 4.848 21.4826 4.848C20.6933 4.848 20.0746 5.12533 19.6266 5.68C19.1893 6.224 18.9706 6.98667 18.9706 7.968C18.9706 8.94933 19.1893 9.70667 19.6266 10.24C20.064 10.7733 20.6826 11.04 21.4826 11.04ZM29.4604 4.976V9.376C29.4604 9.97333 29.583 10.3947 29.8284 10.64C30.0737 10.8747 30.4204 10.992 30.8684 10.992C31.167 10.992 31.455 10.944 31.7324 10.848V11.952C31.4017 12.0587 31.0284 12.112 30.6124 12.112C29.8444 12.112 29.2417 11.8987 28.8044 11.472C28.3777 11.0347 28.1644 10.3947 28.1644 9.552V4.976H26.5964V3.952H28.1644V1.888L29.4604 1.424V3.952H31.7644V4.976H29.4604ZM36.7021 12.112C35.9235 12.112 35.2408 11.9413 34.6541 11.6C34.0781 11.2587 33.6301 10.7787 33.3101 10.16C33.0008 9.53067 32.8461 8.8 32.8461 7.968C32.8461 7.136 33.0061 6.40533 33.3261 5.776C33.6461 5.136 34.0995 4.64 34.6861 4.288C35.2835 3.936 35.9768 3.76 36.7661 3.76C37.3101 3.76 37.8328 3.856 38.3341 4.048C38.8461 4.22933 39.2675 4.48533 39.5981 4.816L39.1661 5.776C38.7608 5.456 38.3661 5.22133 37.9821 5.072C37.6088 4.92267 37.2248 4.848 36.8301 4.848C36.0088 4.848 35.3635 5.12533 34.8941 5.68C34.4248 6.224 34.1901 6.98667 34.1901 7.968C34.1901 8.93867 34.4195 9.696 34.8781 10.24C35.3475 10.7733 35.9981 11.04 36.8301 11.04C37.2248 11.04 37.6088 10.9653 37.9821 10.816C38.3661 10.6667 38.7608 10.432 39.1661 10.112L39.5981 11.072C39.2568 11.392 38.8248 11.648 38.3021 11.84C37.7901 12.0213 37.2568 12.112 36.7021 12.112ZM45.264 3.76C47.1947 3.76 48.16 4.82133 48.16 6.944V12H46.864V7.008C46.864 6.26133 46.7147 5.71733 46.416 5.376C46.1173 5.024 45.648 4.848 45.008 4.848C44.2613 4.848 43.664 5.07733 43.216 5.536C42.768 5.99467 42.544 6.61333 42.544 7.392V12H41.248V0.223999H42.544V5.264C42.8 4.77333 43.1627 4.4 43.632 4.144C44.112 3.888 44.656 3.76 45.264 3.76ZM54.7793 0.223999H56.0753V12H54.7793V0.223999ZM65.6798 3.952V12H64.3998V10.544C64.1651 11.0453 63.8078 11.4347 63.3278 11.712C62.8584 11.9787 62.3091 12.112 61.6798 12.112C60.9651 12.112 60.3358 11.9413 59.7918 11.6C59.2584 11.2587 58.8424 10.7787 58.5438 10.16C58.2558 9.53067 58.1118 8.8 58.1118 7.968C58.1118 7.136 58.2611 6.40533 58.5598 5.776C58.8584 5.136 59.2744 4.64 59.8078 4.288C60.3518 3.936 60.9758 3.76 61.6798 3.76C62.3091 3.76 62.8584 3.89867 63.3278 4.176C63.7971 4.45333 64.1544 4.84267 64.3998 5.344V3.952H65.6798ZM61.9358 11.04C62.7251 11.04 63.3331 10.7733 63.7598 10.24C64.1864 9.696 64.3998 8.928 64.3998 7.936C64.3998 6.944 64.1864 6.18133 63.7598 5.648C63.3331 5.11467 62.7251 4.848 61.9358 4.848C61.1464 4.848 60.5278 5.12533 60.0798 5.68C59.6424 6.224 59.4238 6.98667 59.4238 7.968C59.4238 8.94933 59.6424 9.70667 60.0798 10.24C60.5171 10.7733 61.1358 11.04 61.9358 11.04ZM69.9135 4.976V9.376C69.9135 9.97333 70.0362 10.3947 70.2815 10.64C70.5268 10.8747 70.8735 10.992 71.3215 10.992C71.6202 10.992 71.9082 10.944 72.1855 10.848V11.952C71.8548 12.0587 71.4815 12.112 71.0655 12.112C70.2975 12.112 69.6948 11.8987 69.2575 11.472C68.8308 11.0347 68.6175 10.3947 68.6175 9.552V4.976H67.0495V3.952H68.6175V1.888L69.9135 1.424V3.952H72.2175V4.976H69.9135ZM80.5153 7.936H74.6113C74.6219 8.96 74.8566 9.73333 75.3153 10.256C75.7846 10.7787 76.4619 11.04 77.3473 11.04C78.2859 11.04 79.1499 10.7253 79.9393 10.096L80.3713 11.04C80.0193 11.3707 79.5659 11.632 79.0113 11.824C78.4673 12.016 77.9073 12.112 77.3313 12.112C76.0726 12.112 75.0859 11.744 74.3713 11.008C73.6566 10.2613 73.2993 9.24267 73.2993 7.952C73.2993 7.13067 73.4593 6.40533 73.7793 5.776C74.0993 5.136 74.5473 4.64 75.1233 4.288C75.6993 3.936 76.3553 3.76 77.0913 3.76C78.1579 3.76 78.9953 4.112 79.6033 4.816C80.2113 5.50933 80.5153 6.46933 80.5153 7.696V7.936ZM77.1073 4.768C76.4353 4.768 75.8859 4.97067 75.4593 5.376C75.0433 5.78133 74.7766 6.352 74.6593 7.088H79.3473C79.2833 6.33067 79.0593 5.75467 78.6753 5.36C78.3019 4.96533 77.7793 4.768 77.1073 4.768ZM86.2264 3.76C86.493 3.76 86.7384 3.792 86.9624 3.856L86.9304 5.04C86.685 4.95467 86.4024 4.912 86.0824 4.912C85.3037 4.912 84.7224 5.15733 84.3384 5.648C83.965 6.128 83.7784 6.71467 83.7784 7.408V12H82.4824V6.208C82.4824 5.376 82.4397 4.624 82.3544 3.952H83.5864L83.7144 5.44C83.917 4.896 84.2424 4.48 84.6904 4.192C85.1384 3.904 85.6504 3.76 86.2264 3.76Z" fill="#898989"/>
</svg>
